<svg width="28" height="28" viewBox="0 0 28 28" fill="none" xmlns="http://www.w3.org/2000/svg">
<rect width="28" height="28" rx="8" fill="#C4F3F8"/>
<path d="M10.5 24.85V11.025C9.06112 10.4612 7.88473 9.53755 6.97084 8.25422C6.05695 6.97088 5.60001 5.50283 5.60001 3.85005H7.70001C7.70001 5.39938 8.24445 6.72005 9.33334 7.81205C10.4222 8.90405 11.7445 9.45005 13.3 9.45005H16.275C16.6833 9.45005 17.0868 9.53269 17.4854 9.69797C17.884 9.86324 18.2292 10.0917 18.5208 10.3834L23.1875 15.05L21.7 16.5375L17.5 12.3375V24.85H15.4V17.85H12.6V24.85H10.5ZM13.9927 7.70005C13.317 7.70005 12.741 7.45942 12.2646 6.97817C11.7882 6.49692 11.55 5.91845 11.55 5.24276C11.55 4.56706 11.7906 3.99102 12.2719 3.51463C12.7531 3.03824 13.3316 2.80005 14.0073 2.80005C14.683 2.80005 15.259 3.04067 15.7354 3.52192C16.2118 4.00317 16.45 4.58165 16.45 5.25734C16.45 5.93303 16.2094 6.50908 15.7281 6.98547C15.2469 7.46185 14.6684 7.70005 13.9927 7.70005Z" fill="#0FA3B1"/>
</svg>
