<svg width="28" height="28" viewBox="0 0 28 28" fill="none" xmlns="http://www.w3.org/2000/svg">
<rect width="28" height="28" rx="8" fill="#D9FFE6"/>
<path d="M14.0059 18.9C15.3631 18.9 16.5181 18.4216 17.4708 17.4649C18.4236 16.5084 18.9 15.3514 18.9 13.9941C18.9 12.6369 18.4217 11.4819 17.465 10.5291C16.5084 9.57634 15.3515 9.09995 13.9941 9.09995C12.6369 9.09995 11.4819 9.5783 10.5292 10.535C9.57639 11.4915 9.1 12.6485 9.1 14.0058C9.1 15.363 9.57834 16.518 10.535 17.4708C11.4916 18.4236 12.6485 18.9 14.0059 18.9ZM14.0071 23.7999C12.6583 23.7999 11.3884 23.5447 10.1974 23.0343C9.00642 22.5239 7.96432 21.8221 7.07109 20.9289C6.17786 20.0356 5.47604 18.9939 4.96562 17.8036C4.45521 16.6133 4.2 15.3415 4.2 13.9882C4.2 12.6349 4.45521 11.3671 4.96562 10.1846C5.47604 9.00212 6.17786 7.96427 7.07109 7.07104C7.96432 6.17782 9.00608 5.47599 10.1964 4.96558C11.3867 4.45516 12.6585 4.19995 14.0117 4.19995C15.365 4.19995 16.6329 4.45516 17.8154 4.96558C18.9978 5.47599 20.0357 6.17782 20.9289 7.07104C21.8221 7.96427 22.524 9.00399 23.0344 10.1902C23.5448 11.3766 23.8 12.6441 23.8 13.9928C23.8 15.3417 23.5448 16.6116 23.0344 17.8026C22.524 18.9935 21.8221 20.0356 20.9289 20.9289C20.0357 21.8221 18.996 22.5239 17.8097 23.0343C16.6234 23.5447 15.3558 23.7999 14.0071 23.7999ZM14 21.9625C16.2118 21.9625 18.0918 21.1883 19.6401 19.6401C21.1884 18.0918 21.9625 16.2118 21.9625 14C21.9625 11.7881 21.1884 9.90811 19.6401 8.35985C18.0918 6.81158 16.2118 6.03745 14 6.03745C11.7882 6.03745 9.90816 6.81158 8.35989 8.35985C6.81163 9.90811 6.0375 11.7881 6.0375 14C6.0375 16.2118 6.81163 18.0918 8.35989 19.6401C9.90816 21.1883 11.7882 21.9625 14 21.9625Z" fill="#009638"/>
</svg>
