<svg width="28" height="28" viewBox="0 0 28 28" fill="none" xmlns="http://www.w3.org/2000/svg">
<rect width="28" height="28" rx="8" fill="#DCEAFE"/>
<path d="M14 23.7999C12.6559 23.7999 11.3884 23.5447 10.1974 23.0343C9.00642 22.5239 7.96432 21.8221 7.07109 20.9289C6.17786 20.0356 5.47604 18.9935 4.96562 17.8026C4.45521 16.6116 4.2 15.344 4.2 14C4.2 12.6388 4.45521 11.3671 4.96562 10.1846C5.47604 9.00212 6.17786 7.96427 7.07109 7.07104C7.96432 6.17782 9.00642 5.47599 10.1974 4.96558C11.3884 4.45516 12.6559 4.19995 14 4.19995C15.0719 4.19995 16.0927 4.36158 17.0625 4.68485C18.0323 5.00811 18.9255 5.46749 19.7422 6.06297L18.4151 7.39006C17.7856 6.94769 17.0965 6.61167 16.3479 6.38198C15.5993 6.15229 14.8167 6.03745 14 6.03745C11.7882 6.03745 9.90816 6.81158 8.35989 8.35985C6.81163 9.90811 6.0375 11.7881 6.0375 14C6.0375 16.2118 6.81163 18.0918 8.35989 19.6401C9.90816 21.1883 11.7882 21.9625 14 21.9625C16.2118 21.9625 18.0918 21.1883 19.6401 19.6401C21.1884 18.0918 21.9625 16.2118 21.9625 14C21.9625 13.6427 21.937 13.2896 21.8859 12.9408C21.8349 12.5921 21.7668 12.2475 21.6818 11.9072L23.1365 10.4526C23.3576 10.997 23.5235 11.567 23.6341 12.1625C23.7447 12.7579 23.8 13.3704 23.8 14C23.8 15.344 23.5448 16.6116 23.0344 17.8026C22.524 18.9935 21.8221 20.0356 20.9289 20.9289C20.0357 21.8221 18.9978 22.5239 17.8154 23.0343C16.6329 23.5447 15.3611 23.7999 14 23.7999ZM12.5964 18.4151L8.4875 14.3062L9.81458 12.9791L12.6219 15.7864L22.4984 5.90985L23.8 7.21141L12.5964 18.4151Z" fill="#007AFF"/>
</svg>
