<svg width="28" height="28" viewBox="0 0 28 28" fill="none" xmlns="http://www.w3.org/2000/svg">
<rect width="28" height="28" rx="8" fill="#FEF3C7"/>
<path d="M4.20001 21.1667L14 4.83337L23.8 21.1667H4.20001ZM7.08103 19.5334H20.919L14 8.0093L7.08103 19.5334ZM13.9952 18.4445C14.2253 18.4445 14.4197 18.3667 14.5785 18.2111C14.7373 18.0554 14.8167 17.8626 14.8167 17.6326C14.8167 17.4026 14.7389 17.2081 14.5832 17.0493C14.4276 16.8906 14.2348 16.8112 14.0048 16.8112C13.7747 16.8112 13.5803 16.889 13.4215 17.0446C13.2627 17.2002 13.1833 17.393 13.1833 17.6231C13.1833 17.8531 13.2612 18.0475 13.4168 18.2063C13.5724 18.3651 13.7652 18.4445 13.9952 18.4445ZM13.1833 15.7223H14.8167V11.3667H13.1833V15.7223Z" fill="#F97316"/>
</svg>
