<svg width="26" height="26" viewBox="0 0 26 26" fill="none" xmlns="http://www.w3.org/2000/svg">
<path d="M10.7832 12.6666C10.3584 12.6666 10.004 12.5 9.71994 12.1667C9.43593 11.8334 9.31956 11.4361 9.37084 10.975L9.73971 8.70433C9.84516 7.9153 10.2059 7.25898 10.822 6.73537C11.4378 6.21176 12.1638 5.94995 13 5.94995C13.8362 5.94995 14.5622 6.20724 15.178 6.72183C15.7941 7.23641 16.1549 7.88822 16.2603 8.67724L16.6292 10.975C16.6804 11.4361 16.5641 11.8334 16.2801 12.1667C15.9961 12.5 15.6416 12.6666 15.2168 12.6666H10.7832ZM5.74167 18.6209V18.0749C5.74167 17.743 5.84061 17.4233 6.0385 17.1156C6.23639 16.8079 6.51318 16.5416 6.86888 16.3166C7.81318 15.7737 8.80759 15.3574 9.85211 15.0678C10.8966 14.7782 11.9459 14.6334 13 14.6334C14.0541 14.6334 15.1034 14.7782 16.1479 15.0678C17.1924 15.3574 18.1868 15.7737 19.1311 16.3166C19.4868 16.5236 19.7636 16.7854 19.9615 17.1021C20.1594 17.4188 20.2583 17.743 20.2583 18.0749V18.6209C20.2583 19.0235 20.1208 19.3624 19.8459 19.6376C19.5709 19.9126 19.232 20.0501 18.8291 20.0501H7.17086C6.76804 20.0501 6.42913 19.9126 6.15415 19.6376C5.87916 19.3624 5.74167 19.0235 5.74167 18.6209Z" fill="#636D8B"/>
</svg>
