<svg width="36" height="36" viewBox="0 0 36 36" fill="none" xmlns="http://www.w3.org/2000/svg">
<path d="M13.3333 22.6667C13.3333 23.6327 12.5493 24.4167 11.5833 24.4167C10.6173 24.4167 9.83333 23.6327 9.83333 22.6667C9.83333 21.7007 10.6173 20.9167 11.5833 20.9167C12.5493 20.9167 13.3333 21.7007 13.3333 22.6667ZM11.5833 9.25C10.6173 9.25 9.83333 10.034 9.83333 11C9.83333 11.966 10.6173 12.75 11.5833 12.75C12.5493 12.75 13.3333 11.966 13.3333 11C13.3333 10.034 12.5493 9.25 11.5833 9.25ZM11.5833 15.0833C10.6173 15.0833 9.83333 15.8673 9.83333 16.8333C9.83333 17.7993 10.6173 18.5833 11.5833 18.5833C12.5493 18.5833 13.3333 17.7993 13.3333 16.8333C13.3333 15.8673 12.5493 15.0833 11.5833 15.0833ZM26.1667 4H9.83333C6.61683 4 4 6.61683 4 9.83333V25C4 28.2165 6.61683 30.8333 9.83333 30.8333H13.3333C13.9773 30.8333 14.5 30.3118 14.5 29.6667C14.5 29.0215 13.9773 28.5 13.3333 28.5H9.83333C7.90367 28.5 6.33333 26.9297 6.33333 25V9.83333C6.33333 7.90367 7.90367 6.33333 9.83333 6.33333H26.1667C28.0963 6.33333 29.6667 7.90367 29.6667 9.83333V20.3333C29.6667 20.9785 30.1893 21.5 30.8333 21.5C31.4773 21.5 32 20.9785 32 20.3333V9.83333C32 6.61683 29.3832 4 26.1667 4ZM16.8333 12.1667H25C25.644 12.1667 26.1667 11.644 26.1667 11C26.1667 10.356 25.644 9.83333 25 9.83333H16.8333C16.1893 9.83333 15.6667 10.356 15.6667 11C15.6667 11.644 16.1893 12.1667 16.8333 12.1667ZM16.8333 18H25C25.644 18 26.1667 17.4773 26.1667 16.8333C26.1667 16.1893 25.644 15.6667 25 15.6667H16.8333C16.1893 15.6667 15.6667 16.1893 15.6667 16.8333C15.6667 17.4773 16.1893 18 16.8333 18ZM31.6558 25.6405C32.112 26.3148 32.112 27.1852 31.6558 27.8595C30.6105 29.4053 28.2037 32 23.8333 32C19.463 32 17.0562 29.4053 16.0097 27.8595C15.5535 27.184 15.5535 26.3137 16.0097 25.6405C17.055 24.0947 19.4607 21.5 23.8322 21.5C28.2037 21.5 30.6105 24.0947 31.6558 25.6405ZM29.585 26.75C28.7333 25.5763 26.9448 23.8333 23.8333 23.8333C20.7218 23.8333 18.9322 25.5775 18.0817 26.75C18.9322 27.9237 20.7218 29.6667 23.8333 29.6667C26.9448 29.6667 28.7333 27.9237 29.585 26.75ZM23.8333 25C22.8673 25 22.0833 25.784 22.0833 26.75C22.0833 27.716 22.8673 28.5 23.8333 28.5C24.7993 28.5 25.5833 27.716 25.5833 26.75C25.5833 25.784 24.7993 25 23.8333 25Z" fill="#9C9C9C"/>
</svg>
